<svg xmlns="http://www.w3.org/2000/svg" width="448" height="196" viewBox="0 0 448 196">
    <g fill="none" fill-rule="evenodd">
        <path fill="#1B9191" d="M249.46 97.42c3.311.463 6.698.113 10.006.61 2.405.36 4.79 1.17 7.21.925 2.54-.258 4.808-1.644 6.977-2.995l7.225-4.5c1.014-.632 2.068-1.304 2.673-2.337.55-.936.663-2.058.764-3.14 1.572-16.81 2.607-41.272-22.764-41.967-19.083-.523-33.415 12.09-31.354 32.144 1.055 10.268 9.076 19.832 19.264 21.26zM8.846 98.282c1.505.21 3.044.051 4.547.277 1.094.164 2.178.532 3.278.42 1.155-.117 2.185-.747 3.171-1.36l3.284-2.046c.461-.288.94-.593 1.215-1.063.25-.425.302-.935.348-1.427.714-7.64 1.185-18.76-10.347-19.076C5.667 73.77-.848 79.503.09 88.618c.48 4.667 4.125 9.015 8.756 9.664z"/>
        <path fill="#FF004C" d="M265.745 165.181c12.781-11.3 17.679-29.11 18.107-46.038 1.183-46.709-32.256-94.004-78.751-102.86-5.615-1.069-11.365-1.606-17.053-1.078-5.612.524-11.067 2.072-16.484 3.615-11.998 3.414-23.993 6.83-35.992 10.244-7.2 2.05-14.615 4.208-20.43 8.871-4.422 3.549-7.646 8.346-10.279 13.333-13.776 26.101-12.288 58.16-1.652 85.655 12.946 33.46 41.003 52.874 77.37 54.96 24.917 1.43 66.675-10.352 85.164-26.702"/>
        <g stroke="#FFF" stroke-width="3">
            <g transform="translate(142.883 84.5)">
                <ellipse cx="16.875" cy="8.821" rx="8.775" ry="8.821"/>
                <path fill="#FF004C" d="M0 39.357V36.58c0-6.71 5.44-12.15 12.15-12.15h8.1c6.71 0 12.15 5.44 12.15 12.15v2.778"/>
            </g>
            <g transform="translate(204.983 84.5)">
                <ellipse cx="16.875" cy="8.821" rx="8.775" ry="8.821"/>
                <path fill="#FF004C" d="M0 39.357V36.58c0-6.71 5.44-12.15 12.15-12.15h8.1c6.71 0 12.15 5.44 12.15 12.15v2.778"/>
            </g>
            <g transform="translate(164.483 75)">
                <ellipse cx="25.65" cy="13.571" rx="13.5" ry="13.571"/>
                <path fill="#FF004C" d="M0 57v-2.814c0-10.438 8.462-18.9 18.9-18.9h13.5c10.438 0 18.9 8.462 18.9 18.9V57"/>
            </g>
        </g>
        <path fill="#E20000" d="M92.381 49.811c3.703-2.64 4.094-7.912 6.301-11.89 1.273-2.293 3.183-4.18 4.47-6.466 1.286-2.285 1.845-5.307.32-7.442-.753-1.052-1.903-1.736-3.019-2.39L85.62 12.928c-1.404-.822-2.939-1.674-4.553-1.48-2.033.242-3.479 2.034-4.647 3.716-4.22 6.08-8.763 17.242-12.883 27.92a2.266 2.266 0 0 0 1.306 2.932c11.608 4.427 21.814 7.877 27.539 3.795"/>
        <path fill="#00CAFF" d="M104.041 168.08c-.437-5.542-5.727-9.272-8.512-14.089-1.606-2.777-2.384-5.966-3.972-8.753-1.59-2.787-4.41-5.276-7.614-5.022-1.58.125-3.023.899-4.413 1.655l-18.486 10.064c-1.749.952-3.611 2.024-4.427 3.837-1.027 2.281-.057 4.925.973 7.207 3.723 8.25 12.581 20.039 21.197 31.08a2.78 2.78 0 0 0 3.903.478c11.969-9.371 22.027-17.889 21.351-26.457M306.982 104.024c3.768-1.797 36.423-21.418 38.593-13.116l11.44 43.764c.323 1.24.65 2.523.415 3.71-.358 1.813-1.939 3.024-3.56 3.91-4.862 2.651-10.774 3.511-15.697 6.075-5.502 2.866-9.61 7.773-15.564 9.848-2.017.702-4.48 1.004-6.477-.245-1.665-1.04-2.576-2.893-3.236-4.651-2.152-5.736-2.747-11.696-3.964-17.569-1.414-6.82-3.69-13.583-6.758-20.087-.758-1.605-1.583-3.274-1.552-4.945.061-3.346 3.382-5.274 6.36-6.694z"/>
        <path fill="#449AE0" d="M357.364 151.075c-2.908.369-29.21 5.576-28.343 1.155l4.57-23.307c.13-.66.27-1.342.744-1.9.723-.849 2.067-1.23 3.349-1.445 3.843-.641 7.871-.248 11.73-.837 4.312-.66 8.283-2.525 12.67-2.728 1.486-.07 3.15.123 4.092 1.02.785.747.865 1.793.81 2.757-.18 3.145-1.42 6.186-2.237 9.27a35.087 35.087 0 0 0-1.13 10.906c.048.902.124 1.844-.35 2.669-.951 1.652-3.607 2.148-5.905 2.44z"/>
        <path fill="#FFE60B" d="M447.789 108.118c-.283-2.386-2.025-4.327-3.783-5.986-1.264-1.193-2.61-2.35-4.211-3.044-1.902-.823-4.028-.937-6.102-1.04-1.272-.063-2.572-.123-3.796.227-1.184.339-2.225 1.04-3.36 1.515-1.548.647-3.282.876-4.704 1.763-2.14 1.336-3.138 3.869-3.867 6.265-.464 1.525-.876 3.08-.953 4.671-.095 1.996.339 3.976.77 5.927.382 1.724.768 3.462 1.49 5.076.721 1.614 1.811 3.116 3.33 4.042 1.932 1.177 4.312 1.304 6.579 1.399 1.482.062 2.97.123 4.447-.024 3.26-.325 6.36-1.67 9.058-3.51.755-.514 1.49-1.076 2.063-1.783.613-.756 1.02-1.652 1.381-2.552 1.722-4.289 2.198-8.39 1.658-12.946"/>
        <path fill="#00CAFF" d="M240.2 12.077c-3.575 2.974-4.889 7.847-5.729 12.448-.604 3.31-1.064 6.715-.501 10.046.667 3.954 2.723 7.526 4.743 11 1.24 2.132 2.512 4.306 4.37 5.924 1.798 1.565 4.034 2.514 6 3.856 2.683 1.831 4.883 4.404 7.822 5.777 4.424 2.065 9.588 1.017 14.245-.326 2.965-.855 5.925-1.826 8.588-3.379 3.34-1.948 6.095-4.74 8.808-7.498 2.396-2.437 4.81-4.894 6.67-7.767 1.858-2.873 3.148-6.225 3.05-9.668-.126-4.376-2.428-8.373-4.664-12.152-1.462-2.471-2.931-4.952-4.726-7.193-3.965-4.95-9.415-8.564-15.245-11.004-1.632-.683-3.319-1.285-5.072-1.47-1.872-.198-3.755.086-5.597.448-8.777 1.727-15.936 5.277-22.762 10.958"/>
    </g>
</svg>
