<svg xmlns="http://www.w3.org/2000/svg" width="375.293" height="410.626" viewBox="0 0 375.293 410.626">
  <g id="Group_3308" data-name="Group 3308" transform="translate(-64.728 -41.112)">
    <g id="Background_Complete" data-name="Background Complete" transform="translate(114.704 41.112)">
      <g id="Group_3170" data-name="Group 3170" transform="translate(14.152)">
        <path id="Rectangle_738" data-name="Rectangle 738" d="M2.746,0H60.573a2.746,2.746,0,0,1,2.746,2.746V60.573a2.747,2.747,0,0,1-2.747,2.747H2.746A2.746,2.746,0,0,1,0,60.574V2.746A2.746,2.746,0,0,1,2.746,0Z" fill="#f2f6fa"/>
        <path id="Path_3734" data-name="Path 3734" d="M177.42,56.488h-.077a12.6,12.6,0,0,0-3.884.306,10.906,10.906,0,0,0,3.48.3c-.2.2-.479.505-.837.9-.785.879-1.818,2.039-3.078,3.453L162.89,73.113l-4.278-2.86L156.4,68.779l-.226-.149-.175.2c-4.525,5.29-8.527,10.016-11.382,13.431l-3.346,4.047a12.189,12.189,0,0,0-1.159,1.525,12,12,0,0,0,1.33-1.379l3.489-3.925c2.9-3.3,6.891-7.9,11.355-13.1l1.99,1.328,4.5,3,.223.148.172-.2,10.148-12,2.942-3.571c.378-.468.645-.809.813-1.036h.043a11.01,11.01,0,0,0,.3,3.5,12.267,12.267,0,0,0,.306-3.808v-.306Z" transform="translate(-127.257 -40.863)" fill="#e0e0e0"/>
      </g>
      <g id="Group_3171" data-name="Group 3171" transform="translate(193.763 3.735)">
        <path id="Path_3735" data-name="Path 3735" d="M335.182,83.194h30.976a30.976,30.976,0,1,1-31.692-30.967Z" transform="translate(-304.207 -44.667)" fill="#f2f6fa"/>
        <path id="Path_3736" data-name="Path 3736" d="M342.915,75.764l-.7-30.976a32.676,32.676,0,0,1,22.3,8.776,31.843,31.843,0,0,1,9.361,21.719Z" transform="translate(-303.591 -44.788)" fill="#f2f6fa"/>
      </g>
      <g id="Group_3173" data-name="Group 3173" transform="translate(237.3 168.006)">
        <path id="Path_3737" data-name="Path 3737" d="M347.1,208.2c-.178,5.684.149,23.044.149,23.044l5.121-5.121h28.567a1.816,1.816,0,0,0,1.816-1.816V208.252a1.816,1.816,0,0,0-1.816-1.815H348.917A1.817,1.817,0,0,0,347.1,208.2Z" transform="translate(-347.049 -206.437)" fill="#dfe7ef"/>
        <g id="Group_3172" data-name="Group 3172" transform="translate(11.979 8.532)">
          <path id="Path_3738" data-name="Path 3738" d="M361.526,216.177a1.344,1.344,0,1,1-1.343-1.344A1.344,1.344,0,0,1,361.526,216.177Z" transform="translate(-358.837 -214.833)" fill="#e0e0e0"/>
          <path id="Path_3739" data-name="Path 3739" d="M365.982,216.177a1.344,1.344,0,1,1-1.343-1.344A1.344,1.344,0,0,1,365.982,216.177Z" transform="translate(-358.765 -214.833)" fill="#e0e0e0"/>
          <path id="Path_3740" data-name="Path 3740" d="M370.439,216.177a1.344,1.344,0,1,1-1.344-1.344A1.345,1.345,0,0,1,370.439,216.177Z" transform="translate(-358.693 -214.833)" fill="#e0e0e0"/>
        </g>
      </g>
      <path id="Path_3741" data-name="Path 3741" d="M117.882,298.973c.757-9.9,8.04-25.2,16.975-29.518a29.091,29.091,0,0,1,28.365,2.041c5.6,3.782,9.848,9.541,15.982,12.39,12.122,5.629,26.5-2.345,34.971-12.686s13.774-23.178,23.351-32.5a48.385,48.385,0,0,1,69.2,1.73c6.515,7.012,10.786,15.755,16.015,23.772s11.955,15.712,21.044,18.71c12.494,4.121,26.594-1.93,35.435-11.672s13.429-22.538,17.257-35.125,7.206-25.551,14.242-36.667,18.613-20.314,31.764-20.666V298.591Z" transform="translate(-117.882 -38.88)" fill="#dfe7ef"/>
    </g>
    <g id="Charts" transform="translate(176.127 72.773)">
      <g id="Group_3180" data-name="Group 3180" transform="translate(159.226 50.994)">
        <g id="Group_3175" data-name="Group 3175">
          <path id="Path_3743" data-name="Path 3743" d="M380.138,194.762a3.588,3.588,0,0,0,.61-.122,2.01,2.01,0,0,0,1.244-1.223,3.573,3.573,0,0,0,.113-1.323q-.006-.751-.013-1.637c-.006-1.187-.015-2.553-.023-4.088-.02-6.169-.049-15.064-.085-26.049-.009-5.5-.019-11.523-.032-17.987q-.006-4.85-.013-10.021,0-2.584-.006-5.241c-.013-.866.026-1.82-.032-2.632a1.788,1.788,0,0,0-1.645-1.476l-47.289.014a1.775,1.775,0,0,0-1.771,1.715q0,1.561,0,3.111,0,3.108,0,6.174,0,6.129,0,12.071c-.005,7.912-.01,15.545-.015,22.817s-.017,14.18-.024,20.647q0,1.212,0,2.4a9.265,9.265,0,0,0,.03,1.145,1.818,1.818,0,0,0,1.362,1.437,5.24,5.24,0,0,0,1.1.054l2.274,0,8.631.017,26.048.084,7.081.05,1.841.026c.416.008.628.026.628.026s-.212.018-.628.027l-1.841.026-7.081.049c-6.169.021-15.063.049-26.048.084l-8.631.017-2.274,0a5.548,5.548,0,0,1-1.2-.062,2.244,2.244,0,0,1-1.685-1.768,9.184,9.184,0,0,1-.042-1.222q0-1.192,0-2.4c-.007-6.467-.016-13.376-.024-20.647s-.01-14.9-.015-22.817q0-5.936,0-12.071,0-3.064,0-6.174,0-1.558,0-3.126a2.306,2.306,0,0,1,2.3-2.23l47.321.028a2.278,2.278,0,0,1,2.089,1.881c.069.976.017,1.81.032,2.713q0,2.657-.005,5.241-.008,5.166-.013,10.021c-.012,6.464-.022,12.487-.032,17.987-.036,10.984-.064,19.879-.084,26.049-.009,1.536-.017,2.9-.024,4.088q-.006.886-.012,1.637a3.624,3.624,0,0,1-.145,1.361,2.048,2.048,0,0,1-1.327,1.237A1.584,1.584,0,0,1,380.138,194.762Z" transform="translate(-330.664 -122.448)" fill="#263238"/>
        </g>
        <g id="Group_3176" data-name="Group 3176" transform="translate(12.368 14.078)">
          <path id="Path_3744" data-name="Path 3744" d="M359.7,136.713c-6.912-1.533-14.5,2.221-16.439,9.343-1.867,6.841,2.648,14.824,9.512,16.684a14.189,14.189,0,0,0,16.6-8.892c2.465-7.308-2.223-15.178-9.289-17.508-.82-.27-1.146.99-.354,1.281,6.024,2.207,10.353,8.711,8.552,15.225-1.712,6.194-8.973,10.343-15.179,8.694-5.963-1.583-9.812-7.985-9.055-13.95.928-7.3,8.662-11.679,15.543-10.484.254.044.368-.335.109-.393Z" transform="translate(-342.835 -136.302)" fill="#263238"/>
        </g>
        <g id="Group_3177" data-name="Group 3177" transform="translate(22.076 13.406)">
          <path id="Path_3745" data-name="Path 3745" d="M352.672,162.543a13.983,13.983,0,0,0,17.307-9.175c2.156-7.427-2.646-15.447-9.877-17.659-1.669-.509-2.264,1.953-.707,2.563,6.126,2.4,10.184,9.034,7.762,15.549-2.152,5.793-8.5,8.589-14.377,7.922-.471-.054-.529.671-.108.8Z" transform="translate(-352.388 -135.64)" fill="#007cff"/>
        </g>
        <g id="Group_3178" data-name="Group 3178" transform="translate(11.925 52.194)">
          <path id="Path_3746" data-name="Path 3746" d="M370.493,174.073c0,.146-6.289.265-14.046.265s-14.048-.119-14.048-.265,6.288-.264,14.048-.264S370.493,173.928,370.493,174.073Z" transform="translate(-342.399 -173.809)" fill="#007cff"/>
        </g>
        <g id="Group_3179" data-name="Group 3179" transform="translate(11.925 56.455)">
          <path id="Path_3747" data-name="Path 3747" d="M370.493,178.267c0,.146-6.289.264-14.046.264s-14.048-.118-14.048-.264,6.288-.265,14.048-.265S370.493,178.121,370.493,178.267Z" transform="translate(-342.399 -178.002)" fill="#007cff"/>
        </g>
      </g>
      <path id="Path_3748" data-name="Path 3748" d="M181.6,79.312v93.96a3.779,3.779,0,0,0,3.779,3.779H310.537a3.778,3.778,0,0,0,3.778-3.779V76.046a3.778,3.778,0,0,0-3.878-3.777L185.282,75.534A3.78,3.78,0,0,0,181.6,79.312Z" transform="translate(-173.855 -72.268)" fill="#f2f6fa"/>
      <path id="Path_3749" data-name="Path 3749" d="M303.021,95.439c-.048.1-1.594-.8-4.631-1.76a29.78,29.78,0,0,0-13.279-.985,29.015,29.015,0,0,0-8.758,2.814,41.237,41.237,0,0,0-8.611,6.194c-2.824,2.492-5.627,5.321-8.86,7.937a30.55,30.55,0,0,1-11.308,6.121,17.1,17.1,0,0,1-6.6.4,21.378,21.378,0,0,1-6.118-1.888,106.912,106.912,0,0,1-10.249-6.094,31.981,31.981,0,0,0-9.64-4.322,28.64,28.64,0,0,0-9.169-.7,29.548,29.548,0,0,0-12.657,4.121c-2.715,1.66-4,2.908-4.069,2.821a6.3,6.3,0,0,1,.92-.9,22.025,22.025,0,0,1,2.946-2.241,28.886,28.886,0,0,1,22.221-3.887,32.477,32.477,0,0,1,9.921,4.34,109.79,109.79,0,0,0,10.18,5.994,17.443,17.443,0,0,0,12.076,1.414,29.885,29.885,0,0,0,10.947-5.919c3.182-2.557,6-5.368,8.862-7.864a41.466,41.466,0,0,1,8.844-6.242,29.321,29.321,0,0,1,22.524-1.464,23.508,23.508,0,0,1,3.4,1.463A6.384,6.384,0,0,1,303.021,95.439Z" transform="translate(-173.734 -71.952)" fill="#191919"/>
      <g id="Group_3181" data-name="Group 3181" transform="translate(21.462 26.116)">
        <rect id="Rectangle_739" data-name="Rectangle 739" width="12.242" height="33.109" transform="translate(15.842 19.443)" fill="#191919"/>
        <rect id="Rectangle_740" data-name="Rectangle 740" width="12.242" height="33.109" transform="translate(67.789 19.443)" fill="#191919"/>
        <rect id="Rectangle_741" data-name="Rectangle 741" width="12.242" height="52.552" transform="translate(85.105)" fill="#191919"/>
        <rect id="Rectangle_742" data-name="Rectangle 742" width="12.242" height="11.143" transform="translate(0 42.129)" fill="#191919"/>
        <rect id="Rectangle_743" data-name="Rectangle 743" width="12.242" height="18.158" transform="translate(33.157 34.394)" fill="#191919"/>
        <rect id="Rectangle_744" data-name="Rectangle 744" width="12.242" height="22.326" transform="translate(50.473 30.226)" fill="#191919"/>
      </g>
      <g id="Group_3188" data-name="Group 3188" transform="translate(21.577 82.078)">
        <g id="Group_3182" data-name="Group 3182" transform="translate(15.234)">
          <path id="Path_3750" data-name="Path 3750" d="M223.43,153.528c0,.271-2.961.492-6.614.492s-6.614-.221-6.614-.492,2.96-.492,6.614-.492S223.43,153.256,223.43,153.528Z" transform="translate(-210.203 -153.036)" fill="#263238"/>
        </g>
        <g id="Group_3183" data-name="Group 3183">
          <path id="Path_3751" data-name="Path 3751" d="M208.44,153.528c0,.271-2.962.492-6.614.492s-6.615-.221-6.615-.492,2.961-.492,6.615-.492S208.44,153.256,208.44,153.528Z" transform="translate(-195.212 -153.036)" fill="#263238"/>
        </g>
        <g id="Group_3184" data-name="Group 3184" transform="translate(84.69)">
          <path id="Path_3752" data-name="Path 3752" d="M293.5,153.528c0,.271-3.347.492-7.476.492s-7.476-.221-7.476-.492,3.346-.492,7.476-.492S293.5,153.256,293.5,153.528Z" transform="translate(-278.551 -153.036)" fill="#263238"/>
        </g>
        <g id="Group_3185" data-name="Group 3185" transform="translate(66.503 0)">
          <ellipse id="Ellipse_229" data-name="Ellipse 229" cx="7.477" cy="0.492" rx="7.477" ry="0.492" fill="#263238"/>
        </g>
        <g id="Group_3186" data-name="Group 3186" transform="translate(49.372)">
          <path id="Path_3753" data-name="Path 3753" d="M257.024,153.528c0,.272-2.962.493-6.615.493s-6.614-.221-6.614-.493,2.96-.492,6.614-.492S257.024,153.257,257.024,153.528Z" transform="translate(-243.796 -153.036)" fill="#263238"/>
        </g>
        <g id="Group_3187" data-name="Group 3187" transform="translate(31.48)">
          <path id="Path_3754" data-name="Path 3754" d="M239.419,153.528c0,.272-2.962.493-6.615.493s-6.615-.221-6.615-.493,2.962-.492,6.615-.492S239.419,153.257,239.419,153.528Z" transform="translate(-226.19 -153.036)" fill="#263238"/>
        </g>
      </g>
      <g id="Group_3192" data-name="Group 3192" transform="translate(0 123.587)">
        <g id="Group_3189" data-name="Group 3189">
          <path id="Path_3755" data-name="Path 3755" d="M280.172,194.134a1.217,1.217,0,0,1,.21,0,1.671,1.671,0,0,1,.6.175,1.749,1.749,0,0,1,.733.721,2.711,2.711,0,0,1,.209,1.4c.012,2.157.029,5.311.051,9.369.012,4.075.027,9.055.046,14.837q.009,4.34.02,9.268,0,1.23.005,2.5,0,.633,0,1.273a2.394,2.394,0,0,1-.245,1.341,1.887,1.887,0,0,1-1.109.876,6,6,0,0,1-1.37.077l-2.7,0,.19-.19c.005,2.931.009,6.1.015,9.374v.54l-.359-.4-8.3-9.363.165.074-85.589.045h-5.977c-.341,0-.636.01-1.015-.009a1.961,1.961,0,0,1-1.681-1.354,2.025,2.025,0,0,1-.092-.561v-6.377q0-7.8,0-15.355t.007-14.819l0-1.821a1.947,1.947,0,0,1,1.066-1.657,2,2,0,0,1,.981-.211h2.676l7.022.005,49.149.057,33.135.084,9.008.05,2.343.026c.527.008.8.026.8.026s-.27.018-.8.027l-2.343.026-9.008.049-33.135.084-49.149.057-7.022,0-1.781,0h-.894a1.5,1.5,0,0,0-.754.159,1.442,1.442,0,0,0-.79,1.231l0,1.8q0,7.263.006,14.819t.005,15.355v5.88a2.9,2.9,0,0,0,.069.9,1.438,1.438,0,0,0,1.228.99c.279.013.646,0,.965.006h5.977l85.589.045h.1l.066.075,8.277,9.384-.358.135c.005-3.278.01-6.443.014-9.374v-.19h.189l2.7,0a5.905,5.905,0,0,0,1.268-.058,1.523,1.523,0,0,0,.9-.7,2.046,2.046,0,0,0,.2-1.163q0-.64,0-1.273,0-1.267.005-2.5.011-4.922.02-9.268c.018-5.782.033-10.762.046-14.837.021-4.059.039-7.212.05-9.369a2.64,2.64,0,0,0-.174-1.364,1.7,1.7,0,0,0-.685-.71A2.042,2.042,0,0,0,280.172,194.134Z" transform="translate(-173.979 -193.883)" fill="#263238"/>
        </g>
        <path id="Path_3756" data-name="Path 3756" d="M179.591,228.243c.855-2.978,1.845-6.012,3.831-8.388s5.2-3.971,8.2-3.2c4.739,1.219,7.031,7.532,11.881,8.182,2.681.358,5.292-1.247,7.02-3.328s2.793-4.616,4.115-6.975c1.986-3.541,4.706-6.821,8.355-8.6s8.337-1.786,11.527.724c5.468,4.306,4.706,13.812,10.534,17.618a8.436,8.436,0,0,0,9.392-.279c2.583-1.915,3.912-5.228,6.631-6.946,3.148-1.989,7.525-1.209,10.375,1.188s4.343,6.089,4.885,9.774" transform="translate(-173.888 -193.708)" fill="#007cff"/>
        <g id="Group_3190" data-name="Group 3190" transform="translate(7.665 15.343)">
          <path id="Path_3757" data-name="Path 3757" d="M274.345,211.083a.91.91,0,0,1-.239-.092l-.674-.315a17.855,17.855,0,0,0-2.7-.91,21.626,21.626,0,0,0-10.365.3,39.6,39.6,0,0,0-6.778,2.52c-2.367,1.1-4.82,2.434-7.434,3.794a59.261,59.261,0,0,1-8.468,3.755,24.725,24.725,0,0,1-9.853,1.374,32.666,32.666,0,0,1-9.653-2.438c-2.991-1.2-5.748-2.618-8.375-3.937-5.223-2.679-10.114-4.823-14.508-5.479a20.742,20.742,0,0,0-10.329.754,19.836,19.836,0,0,0-3.449,1.7.95.95,0,0,1,.2-.162l.611-.432a14.23,14.23,0,0,1,2.569-1.3,20.494,20.494,0,0,1,10.458-.93c4.467.619,9.428,2.756,14.669,5.411,2.636,1.309,5.385,2.714,8.348,3.892a32.376,32.376,0,0,0,9.5,2.392,24.327,24.327,0,0,0,9.65-1.338,59.818,59.818,0,0,0,8.408-3.7c2.613-1.344,5.083-2.67,7.473-3.759a39.361,39.361,0,0,1,6.872-2.486,21.325,21.325,0,0,1,10.506-.138A11.886,11.886,0,0,1,274.345,211.083Z" transform="translate(-181.522 -208.98)" fill="#263238"/>
        </g>
        <g id="Group_3191" data-name="Group 3191" transform="translate(14.713 9.898)">
          <path id="Path_3758" data-name="Path 3758" d="M228.279,204.691a1.069,1.069,0,1,1-1.069-1.068A1.069,1.069,0,0,1,228.279,204.691Z" transform="translate(-187.846 -203.623)" fill="#455a64"/>
          <path id="Path_3759" data-name="Path 3759" d="M190.594,209.137a1.069,1.069,0,1,1-1.068-1.069A1.068,1.068,0,0,1,190.594,209.137Z" transform="translate(-188.457 -203.551)" fill="#455a64"/>
          <path id="Path_3760" data-name="Path 3760" d="M265.569,209.143a1.068,1.068,0,1,1-1.068-1.069A1.068,1.068,0,0,1,265.569,209.143Z" transform="translate(-187.241 -203.551)" fill="#455a64"/>
        </g>
      </g>
    </g>
    <g id="Character_2" data-name="Character 2" transform="translate(195.106 203.843)">
      <g id="Group_3265" data-name="Group 3265" transform="translate(0 0)">
        <path id="Path_3761" data-name="Path 3761" d="M337.759,357.581h9.527c4.437,0,13.96-11.681-37.709-10.347-33.963.877-36.193,5.889-34.473,8.818a4.221,4.221,0,0,0,3.974,1.984c.827-.059,1.926-.072,3.226-.066l-.813,3.583h0L262.586,445.1l3.3-.286L279.84,398.81l26.638-1.021,1.523,48.9h4.179l1.007-49.155.128-.005,2.815-.109,23.614-.905,13.988,50.175h4.009Zm-55.934,34.692,9.32-30.72,1.056-3.479h0c3.908,0,8.47-.09,13.037-.09l1.045,33.523Zm35.122-1.1h0l-1.033.032-2.6.082.69-33.7H328.89l9.181,32.928Z" transform="translate(-191.521 -198.881)" fill="#898989"/>
        <g id="Group_3263" data-name="Group 3263" transform="translate(48.08)">
          <g id="Group_3206" data-name="Group 3206" transform="translate(0 231.138)">
            <g id="Group_3193" data-name="Group 3193">
              <path id="Path_3762" data-name="Path 3762" d="M253.022,439.626v-10.8l19.353-.13.161,16.151-1.2.089c-5.338.345-27.167,1.013-30.743-.094C236.6,443.607,253.022,439.626,253.022,439.626Z" transform="translate(-239.967 -428.696)" fill="#37c978"/>
            </g>
            <g id="Group_3195" data-name="Group 3195" transform="translate(0.167 14.828)">
              <g id="Group_3194" data-name="Group 3194">
                <path id="Path_3763" data-name="Path 3763" d="M240.132,443.616c0,.182,7.238.329,16.167.329s16.168-.147,16.168-.329-7.237-.329-16.168-.329S240.132,443.435,240.132,443.616Z" transform="translate(-240.132 -443.287)" fill="#263238"/>
              </g>
            </g>
            <g id="Group_3197" data-name="Group 3197" transform="translate(11.241 11.151)">
              <g id="Group_3196" data-name="Group 3196">
                <path id="Path_3764" data-name="Path 3764" d="M252.5,441.653c.159-.084.022-.654-.394-1.216s-.92-.865-1.047-.738.136.606.517,1.127S252.34,441.739,252.5,441.653Z" transform="translate(-251.029 -439.67)" fill="#263238"/>
              </g>
            </g>
            <g id="Group_3199" data-name="Group 3199" transform="translate(10.114 11.483)">
              <g id="Group_3198" data-name="Group 3198">
                <path id="Path_3765" data-name="Path 3765" d="M251.286,442.358c.168-.062.081-.7-.3-1.375s-.882-1.08-1.023-.968.1.664.45,1.291S251.114,442.425,251.286,442.358Z" transform="translate(-249.92 -439.996)" fill="#263238"/>
              </g>
            </g>
            <g id="Group_3201" data-name="Group 3201" transform="translate(26.653 11.293)">
              <g id="Group_3200" data-name="Group 3200">
                <path id="Path_3766" data-name="Path 3766" d="M266.213,443.6c.076.053.364-.231.783-.706a12.66,12.66,0,0,1,1.7-1.7,4.449,4.449,0,0,1,2.094-.915c.588-.079.975.012,1.007-.083.034-.07-.325-.34-1.022-.382a3.857,3.857,0,0,0-2.481.858,7.061,7.061,0,0,0-1.671,1.948C266.29,443.176,266.14,443.55,266.213,443.6Z" transform="translate(-266.195 -439.809)" fill="#263238"/>
              </g>
            </g>
            <g id="Group_3203" data-name="Group 3203" transform="translate(12.64 11.024)">
              <g id="Group_3202" data-name="Group 3202">
                <path id="Path_3767" data-name="Path 3767" d="M252.421,439.624c-.094.152.237.527.79.73s1.049.133,1.074-.045-.363-.392-.848-.572S252.517,439.468,252.421,439.624Z" transform="translate(-252.405 -439.544)" fill="#263238"/>
              </g>
            </g>
            <g id="Group_3205" data-name="Group 3205" transform="translate(12.959 9.747)">
              <g id="Group_3204" data-name="Group 3204">
                <path id="Path_3768" data-name="Path 3768" d="M252.72,438.6c-.018.18.5.336,1.151.343s1.173-.131,1.161-.312-.528-.335-1.152-.345S252.737,438.42,252.72,438.6Z" transform="translate(-252.72 -438.288)" fill="#263238"/>
              </g>
            </g>
          </g>
          <g id="Group_3220" data-name="Group 3220" transform="translate(40.852 231.138)">
            <g id="Group_3207" data-name="Group 3207">
              <path id="Path_3769" data-name="Path 3769" d="M293.222,439.626v-10.8l19.353-.13.16,16.151-1.2.089c-5.338.345-27.167,1.013-30.744-.094C276.8,443.607,293.222,439.626,293.222,439.626Z" transform="translate(-280.167 -428.696)" fill="#37c978"/>
            </g>
            <g id="Group_3209" data-name="Group 3209" transform="translate(0.167 14.828)">
              <g id="Group_3208" data-name="Group 3208">
                <path id="Path_3770" data-name="Path 3770" d="M280.332,443.616c0,.182,7.24.329,16.167.329s16.168-.147,16.168-.329-7.237-.329-16.168-.329S280.332,443.435,280.332,443.616Z" transform="translate(-280.332 -443.287)" fill="#263238"/>
              </g>
            </g>
            <g id="Group_3211" data-name="Group 3211" transform="translate(11.241 11.151)">
              <g id="Group_3210" data-name="Group 3210">
                <path id="Path_3771" data-name="Path 3771" d="M292.7,441.653c.159-.084.022-.654-.393-1.216s-.921-.865-1.047-.738.135.606.517,1.127S292.541,441.739,292.7,441.653Z" transform="translate(-291.229 -439.67)" fill="#263238"/>
              </g>
            </g>
            <g id="Group_3213" data-name="Group 3213" transform="translate(10.115 11.483)">
              <g id="Group_3212" data-name="Group 3212">
                <path id="Path_3772" data-name="Path 3772" d="M291.486,442.358c.168-.062.081-.7-.3-1.375s-.882-1.08-1.022-.968.1.664.449,1.291S291.314,442.425,291.486,442.358Z" transform="translate(-290.121 -439.996)" fill="#263238"/>
              </g>
            </g>
            <g id="Group_3215" data-name="Group 3215" transform="translate(26.653 11.293)">
              <g id="Group_3214" data-name="Group 3214">
                <path id="Path_3773" data-name="Path 3773" d="M306.413,443.6c.076.053.364-.231.783-.706a12.734,12.734,0,0,1,1.7-1.7,4.442,4.442,0,0,1,2.093-.915c.588-.079.975.012,1.007-.083.034-.07-.325-.34-1.022-.382a3.856,3.856,0,0,0-2.48.858,7.068,7.068,0,0,0-1.672,1.948C306.491,443.176,306.34,443.55,306.413,443.6Z" transform="translate(-306.395 -439.809)" fill="#263238"/>
              </g>
            </g>
            <g id="Group_3217" data-name="Group 3217" transform="translate(12.64 11.024)">
              <g id="Group_3216" data-name="Group 3216">
                <path id="Path_3774" data-name="Path 3774" d="M292.621,439.624c-.094.152.238.527.79.73s1.049.133,1.075-.045-.364-.392-.848-.572S292.717,439.468,292.621,439.624Z" transform="translate(-292.605 -439.544)" fill="#263238"/>
              </g>
            </g>
            <g id="Group_3219" data-name="Group 3219" transform="translate(12.959 9.747)">
              <g id="Group_3218" data-name="Group 3218">
                <path id="Path_3775" data-name="Path 3775" d="M292.92,438.6c-.017.18.5.336,1.151.343s1.174-.131,1.16-.312-.528-.335-1.152-.345S292.937,438.42,292.92,438.6Z" transform="translate(-292.92 -438.288)" fill="#263238"/>
              </g>
            </g>
          </g>
          <path id="Path_3776" data-name="Path 3776" d="M348.052,249.352c-.8-.176-1.784-.074-2.26-.738-.433-.6-.13-1.434.122-2.135a10.121,10.121,0,0,0,.07-7,7.882,7.882,0,0,0-2.911-3.67,3.279,3.279,0,0,0,.491-.631,4.382,4.382,0,0,0,.549-2.219,4.9,4.9,0,0,0-1.487-3.7,2.354,2.354,0,0,0-3.181-.041,1.617,1.617,0,0,0-.046,2.366,1.475,1.475,0,0,0,1.545.194.721.721,0,0,0,.39-.387,1.821,1.821,0,0,1-.434.291,1.3,1.3,0,0,1-1.244-2.257,2.035,2.035,0,0,1,2.73.122,4.538,4.538,0,0,1,1.287,3.415,3.942,3.942,0,0,1-.509,1.985,2.886,2.886,0,0,1-.5.6,6.611,6.611,0,0,0-1.746-.713c-1.313-.319-2.743-.24-3.942-.862a4.785,4.785,0,0,1-2.137-2.563c-.006-.118-.02-.236-.018-.355a50.33,50.33,0,0,1,.731-5.269,16.165,16.165,0,0,0-.138-5.05,9.474,9.474,0,0,0-4.841-6.809,6.623,6.623,0,0,0-5.644-.1,5.151,5.151,0,0,0-1.306.866c-.1.094-.152.159-.21.222a4.639,4.639,0,0,0-1.551,1.243l-3.136,28.228,22.963,14.034a17.122,17.122,0,0,0,5.235-1.06,5.785,5.785,0,0,0,3.495-3.8A3.547,3.547,0,0,0,348.052,249.352ZM332.973,219.79a8.856,8.856,0,0,0-4.664-5.072,6.065,6.065,0,0,0-4.643.079,5.992,5.992,0,0,1,1.346-.779,6.513,6.513,0,0,1,5.394.249,9.154,9.154,0,0,1,4.529,6.568,15.893,15.893,0,0,1,.1,4.894c-.126,1.267-.482,2.552-.651,3.917a27.194,27.194,0,0,1-.215-2.907A21.157,21.157,0,0,0,332.973,219.79Z" transform="translate(-238.69 -201.052)" fill="#263238"/>
          <g id="Group_3227" data-name="Group 3227" transform="translate(57.628)">
            <path id="Path_3777" data-name="Path 3777" d="M326.522,219.941a2.464,2.464,0,0,0-.9-1.362,3.718,3.718,0,0,0-2.748-.123l-.054-6.479-12.667-10.265-6.789,3.525a10.629,10.629,0,0,0-5.736,9.535c.05,5.222.181,12.307.524,16.326.591,6.907,7.584,7.476,7.584,7.476s.3,2.49.51,4.965c0,.014-1.538,20.458,5.66,20.273,5.3-.135,8.867-11.283,10.378-17.148l.794-3.221v-.167l.027-.135-.028,0-.159-19.4.218.223a1.5,1.5,0,0,0,1.673.2,3.1,3.1,0,0,0,1.663-1.771A3.864,3.864,0,0,0,326.522,219.941Z" transform="translate(-296.66 -201.239)" fill="#ffbe9d"/>
            <g id="Group_3222" data-name="Group 3222" transform="translate(1.714 16.524)">
              <path id="Path_3778" data-name="Path 3778" d="M299.245,219.549a.885.885,0,1,0,.864-.907A.886.886,0,0,0,299.245,219.549Z" transform="translate(-298.348 -217.488)" fill="#263238"/>
              <g id="Group_3221" data-name="Group 3221">
                <path id="Path_3779" data-name="Path 3779" d="M298.378,218.623c.118.112.758-.459,1.71-.534s1.678.367,1.774.237c.048-.058-.076-.266-.394-.474a2.356,2.356,0,0,0-2.781.238C298.409,218.348,298.322,218.574,298.378,218.623Z" transform="translate(-298.362 -217.507)" fill="#263238"/>
              </g>
            </g>
            <g id="Group_3224" data-name="Group 3224" transform="translate(12.291 16.212)">
              <path id="Path_3780" data-name="Path 3780" d="M309.351,219.249a.886.886,0,1,0,.864-.906A.886.886,0,0,0,309.351,219.249Z" transform="translate(-308.761 -217.181)" fill="#263238"/>
              <g id="Group_3223" data-name="Group 3223">
                <path id="Path_3781" data-name="Path 3781" d="M308.787,218.317c.117.112.757-.46,1.709-.536s1.679.368,1.774.238c.048-.058-.075-.266-.394-.474a2.356,2.356,0,0,0-2.78.237C308.817,218.041,308.73,218.267,308.787,218.317Z" transform="translate(-308.771 -217.2)" fill="#263238"/>
              </g>
            </g>
            <g id="Group_3225" data-name="Group 3225" transform="translate(6.583 17.201)">
              <path id="Path_3782" data-name="Path 3782" d="M305.623,226.491a6.027,6.027,0,0,1-1.568.124,1.614,1.614,0,0,1-.417-.027.6.6,0,0,1-.421-.338,1.549,1.549,0,0,1,.068-1.007q.274-.954.575-2a34.913,34.913,0,0,1,1.715-5.069,34.875,34.875,0,0,1-1.321,5.186q-.317,1.043-.606,1.991a1.346,1.346,0,0,0-.118.765c.051.17.283.2.527.208A5.987,5.987,0,0,1,305.623,226.491Z" transform="translate(-303.154 -218.173)" fill="#263238"/>
            </g>
            <path id="Path_3783" data-name="Path 3783" d="M308.9,227.124c.066-.079-2.75,1.7-4.695,1.745a2.636,2.636,0,0,0,3.181.82A2.189,2.189,0,0,0,308.9,227.124Z" transform="translate(-296.554 -200.827)" fill="#fafafa"/>
            <path id="Path_3784" data-name="Path 3784" d="M305.61,238.039a17.273,17.273,0,0,0,9.089-3.317s-1.954,5.129-8.9,5.01Z" transform="translate(-296.531 -200.703)" fill="#eb996e"/>
            <path id="Path_3785" data-name="Path 3785" d="M296.676,215.612c3.011.418,5.235-.406,8.184-1.149s5.749-2.687,6.775-5.549a10.4,10.4,0,0,0,2.52,5.075c.283.309.811.6,1.062.26a.757.757,0,0,0,.03-.635l-.61-2.413a19.516,19.516,0,0,0,4.016,5.031c1.684,1.349,6.811,3.442,6.036,1.43-.2-.505,1.522-16.179-13.373-16.414S296.676,215.612,296.676,215.612Z" transform="translate(-296.676 -201.246)" fill="#263238"/>
            <g id="Group_3226" data-name="Group 3226" transform="translate(26.392 18.49)">
              <path id="Path_3786" data-name="Path 3786" d="M322.655,219.779c-.042-.044.258-.357.9-.337a1.666,1.666,0,0,1-.006,3.328c-.64.016-.938-.3-.9-.341.037-.074.361.074.853-.03a1.314,1.314,0,0,0,.005-2.584C323.016,219.707,322.691,219.855,322.655,219.779Z" transform="translate(-322.646 -219.441)" fill="#eb996e"/>
            </g>
          </g>
          <g id="Group_3251" data-name="Group 3251" transform="translate(36.262 41.903)">
            <g id="Group_3249" data-name="Group 3249">
              <path id="Path_3787" data-name="Path 3787" d="M348.2,268.082l2.56-.519s-5.579-25.081-24.966-25.081c-.814,0-1.582,0-2.33.005,0,.007-.011.056-.026.13v.167L322.644,246c-1.51,5.865-5.074,17.012-10.378,17.148-6.715.172-5.829-17.6-5.679-20a1.671,1.671,0,0,0-.492.13s-21.088,1.174-30.445,19.667l16.257,11.881,3.979-2.4s1.3,26.161-.937,33.28c-2.526,8.055-6.428,16.969-6.428,16.969,17.882-1.394,38.211-.6,59.89,1.406l-14.487-53.105A49.362,49.362,0,0,0,348.2,268.082Z" transform="translate(-275.651 -242.481)" fill="#37c978"/>
              <g id="Group_3247" data-name="Group 3247" transform="translate(12.091 6.431)">
                <g id="Group_3228" data-name="Group 3228" transform="translate(26.851 31.124)">
                  <path id="Path_3788" data-name="Path 3788" d="M330.133,280.028c.023.022-.128.232-.451.565a9.084,9.084,0,0,1-1.538,1.236,10.721,10.721,0,0,1-12.318-.447,9.04,9.04,0,0,1-1.442-1.344c-.3-.356-.435-.575-.41-.6.069-.063.725.731,2.069,1.636a11.1,11.1,0,0,0,11.906.434C329.357,280.7,330.068,279.959,330.133,280.028Z" transform="translate(-313.972 -279.437)" fill="#263238"/>
                </g>
                <g id="Group_3229" data-name="Group 3229" transform="translate(42.237 13.575)">
                  <path id="Path_3789" data-name="Path 3789" d="M339.283,294.257a6.38,6.38,0,0,1-.442-1.251c-.275-.918-.623-2.075-1.037-3.456-.867-2.92-2.073-6.95-3.474-11.378s-2.739-8.419-3.712-11.305c-.456-1.367-.838-2.514-1.142-3.422a6.264,6.264,0,0,1-.358-1.277,6.41,6.41,0,0,1,.552,1.206c.324.789.769,1.94,1.3,3.368,1.065,2.857,2.457,6.834,3.864,11.271s2.556,8.487,3.33,11.436c.388,1.475.686,2.671.875,3.5A6.321,6.321,0,0,1,339.283,294.257Z" transform="translate(-329.112 -262.168)" fill="#263238"/>
                </g>
                <g id="Group_3230" data-name="Group 3230" transform="translate(41.209 3.445)">
                  <path id="Path_3790" data-name="Path 3790" d="M333,254.316a9.558,9.558,0,0,1-4.9-2.093,23.552,23.552,0,0,1,4.9,2.093Z" transform="translate(-328.101 -252.2)" fill="#263238"/>
                </g>
                <g id="Group_3231" data-name="Group 3231" transform="translate(51.08 8.48)">
                  <path id="Path_3791" data-name="Path 3791" d="M337.847,262.935a17.64,17.64,0,0,1,1.92-5.779,17.616,17.616,0,0,1-1.92,5.779Z" transform="translate(-337.814 -257.155)" fill="#263238"/>
                </g>
                <g id="Group_3232" data-name="Group 3232" transform="translate(33.688 15.378)">
                  <path id="Path_3792" data-name="Path 3792" d="M320.718,269.078a24.151,24.151,0,0,1,2.489-5.134,11.484,11.484,0,0,1-2.489,5.134Z" transform="translate(-320.699 -263.942)" fill="#263238"/>
                </g>
                <g id="Group_3233" data-name="Group 3233" transform="translate(26.518 21.56)">
                  <path id="Path_3793" data-name="Path 3793" d="M317.68,274.49a11.171,11.171,0,0,1-4.023-4.459,38.157,38.157,0,0,1,4.023,4.459Z" transform="translate(-313.644 -270.026)" fill="#263238"/>
                </g>
                <g id="Group_3234" data-name="Group 3234" transform="translate(37.741 25.191)">
                  <path id="Path_3794" data-name="Path 3794" d="M330.13,273.6a9.463,9.463,0,0,1-2.177,2.905,15.228,15.228,0,0,1-2.512,2.175l-.753.459.6-.6c.141-.143.233-.21.264-.189s0,.131-.091.312l-.155-.142c.356-.434,1.256-1.318,2.27-2.379A18.613,18.613,0,0,1,330.13,273.6Z" transform="translate(-324.688 -273.599)" fill="#263238"/>
                </g>
                <g id="Group_3235" data-name="Group 3235" transform="translate(40.707 40.262)">
                  <path id="Path_3795" data-name="Path 3795" d="M332.769,291.5a10.751,10.751,0,0,1-5.157-3.055,43.185,43.185,0,0,1,5.157,3.055Z" transform="translate(-327.607 -288.429)" fill="#263238"/>
                </g>
                <g id="Group_3236" data-name="Group 3236" transform="translate(29.654 39.185)">
                  <path id="Path_3796" data-name="Path 3796" d="M320.22,287.374a17.842,17.842,0,0,1-3.474,5.044,17.9,17.9,0,0,1,3.474-5.044Z" transform="translate(-316.731 -287.369)" fill="#263238"/>
                </g>
                <g id="Group_3237" data-name="Group 3237" transform="translate(20.858 36.924)">
                  <path id="Path_3797" data-name="Path 3797" d="M312,288.227a6.09,6.09,0,0,1-2.125-1.326c-1.083-.848-1.888-1.627-1.8-1.743a6.1,6.1,0,0,1,2.124,1.326C311.288,287.332,312.093,288.111,312,288.227Z" transform="translate(-308.074 -285.144)" fill="#263238"/>
                </g>
                <g id="Group_3238" data-name="Group 3238" transform="translate(16.402 27.66)">
                  <path id="Path_3798" data-name="Path 3798" d="M307.551,276.045c.085.119-.709.83-1.773,1.589s-2,1.277-2.081,1.158.709-.83,1.774-1.59S307.466,275.927,307.551,276.045Z" transform="translate(-303.69 -276.029)" fill="#263238"/>
                </g>
                <g id="Group_3239" data-name="Group 3239" transform="translate(15.665 17.586)">
                  <path id="Path_3799" data-name="Path 3799" d="M305.84,269.9c-.117.088-.851-.685-1.64-1.727s-1.335-1.958-1.219-2.047.852.685,1.641,1.727S305.957,269.807,305.84,269.9Z" transform="translate(-302.965 -266.115)" fill="#263238"/>
                </g>
                <g id="Group_3240" data-name="Group 3240" transform="translate(36.634)">
                  <path id="Path_3800" data-name="Path 3800" d="M323.62,253.507a13.513,13.513,0,0,1,2.513-4.694,13.536,13.536,0,0,1-2.513,4.694Z" transform="translate(-323.599 -248.81)" fill="#263238"/>
                </g>
                <g id="Group_3241" data-name="Group 3241" transform="translate(9.085 2.702)">
                  <path id="Path_3801" data-name="Path 3801" d="M301.42,254.518a15.944,15.944,0,0,1-4.927-3.032,15.994,15.994,0,0,1,4.927,3.032Z" transform="translate(-296.489 -251.469)" fill="#263238"/>
                </g>
                <g id="Group_3242" data-name="Group 3242" transform="translate(0 2.709)">
                  <path id="Path_3802" data-name="Path 3802" d="M289.709,251.48c.125.075-.251.941-.84,1.935s-1.17,1.74-1.3,1.665.251-.94.84-1.935S289.583,251.406,289.709,251.48Z" transform="translate(-287.549 -251.475)" fill="#263238"/>
                </g>
                <g id="Group_3243" data-name="Group 3243" transform="translate(9.851 68.242)">
                  <path id="Path_3803" data-name="Path 3803" d="M301.879,319.074a14.77,14.77,0,0,1-4.631-3.1,14.773,14.773,0,0,1,4.631,3.1Z" transform="translate(-297.243 -315.962)" fill="#263238"/>
                </g>
                <g id="Group_3244" data-name="Group 3244" transform="translate(44.744 67.683)">
                  <path id="Path_3804" data-name="Path 3804" d="M335.292,315.421a7.289,7.289,0,0,1-1.656,2.191c-1.022,1.112-1.939,1.933-2.047,1.833a7.3,7.3,0,0,1,1.657-2.191C334.269,316.143,335.185,315.322,335.292,315.421Z" transform="translate(-331.579 -315.413)" fill="#263238"/>
                </g>
                <g id="Group_3245" data-name="Group 3245" transform="translate(25.301 67.428)">
                  <path id="Path_3805" data-name="Path 3805" d="M312.521,319.231c-.146-.037-.03-.936-.035-2.034s-.112-2,.035-2.033.5.858.494,2.033S312.656,319.271,312.521,319.231Z" transform="translate(-312.447 -315.162)" fill="#263238"/>
                </g>
                <g id="Group_3246" data-name="Group 3246" transform="translate(32.697 68.83)">
                  <path id="Path_3806" data-name="Path 3806" d="M324.411,319.4a14.276,14.276,0,0,1-4.682-2.843,14.275,14.275,0,0,1,4.682,2.843Z" transform="translate(-319.725 -316.541)" fill="#263238"/>
                </g>
              </g>
              <g id="Group_3248" data-name="Group 3248" transform="translate(12.871 79.03)">
                <path id="Path_3807" data-name="Path 3807" d="M348.207,322.82a2.524,2.524,0,0,1-.612-.012l-1.744-.135-6.4-.575c-5.406-.471-12.878-1.135-21.152-1.271-8.279-.158-15.776.049-21.2.259l-6.423.274-1.747.066a2.621,2.621,0,0,1-.612-.012,2.644,2.644,0,0,1,.6-.093l1.741-.166c1.513-.128,3.705-.29,6.417-.443,5.423-.306,12.93-.572,21.226-.415,8.3.137,15.779.864,21.179,1.429,2.7.289,4.882.55,6.389.742l1.733.235A2.835,2.835,0,0,1,348.207,322.82Z" transform="translate(-288.317 -320.25)" fill="#263238"/>
              </g>
            </g>
            <g id="Group_3250" data-name="Group 3250" transform="translate(54.334 20.006)" opacity="0.2">
              <path id="Path_3808" data-name="Path 3808" d="M329.118,262.168l5.084,33.786s4.709-.04,5.566-1.4Z" transform="translate(-329.118 -262.168)"/>
              <path id="Path_3809" data-name="Path 3809" d="M329.118,262.168l5.084,33.786s4.709-.04,5.566-1.4Z" transform="translate(-329.118 -262.168)"/>
            </g>
          </g>
          <g id="Group_3262" data-name="Group 3262" transform="translate(10.716 121.121)">
            <path id="Path_3810" data-name="Path 3810" d="M300.888,320.767c-11.96.926-18.5.1-31.65,1.335a18.785,18.785,0,0,0-16.32,18.188l-2.306,99.394h24.174l3.818-89.113,7.129.9c-.917,33.372,2.571,88.211,2.571,88.211l26.841-1.311-1.533-85.586s36.108,2.451,35.207-29.971C348.818,322.817,320.382,319.372,300.888,320.767Z" transform="translate(-250.51 -320.435)" fill="#151617"/>
            <g id="Group_3252" data-name="Group 3252" transform="translate(35.007 0.06)">
              <path id="Path_3811" data-name="Path 3811" d="M307.561,320.507a13.841,13.841,0,0,1-1.829.312c-1.179.177-2.885.431-4.979.816a30.739,30.739,0,0,0-7.167,1.9,14.352,14.352,0,0,0-3.649,2.332,11.76,11.76,0,0,0-2.764,3.7,20.7,20.7,0,0,0-1.723,8.82c.03,2.808.106,5.359.081,7.494s-.092,3.864-.174,5.056c-.043.6-.081,1.058-.117,1.372a1.65,1.65,0,0,1-.079.476,13.722,13.722,0,0,1-.01-1.856c.018-1.193.04-2.917.006-5.048-.056-2.159-.122-4.694-.2-7.494a20.778,20.778,0,0,1,1.735-9.051,12.162,12.162,0,0,1,2.9-3.855,14.6,14.6,0,0,1,3.795-2.389,29.506,29.506,0,0,1,7.3-1.829c2.111-.338,3.829-.538,5.018-.651.594-.056,1.058-.092,1.372-.109A1.646,1.646,0,0,1,307.561,320.507Z" transform="translate(-284.96 -320.493)" fill="#c9c9c9"/>
            </g>
            <g id="Group_3253" data-name="Group 3253" transform="translate(25.917 23.907)">
              <path id="Path_3812" data-name="Path 3812" d="M276.06,343.96a19.546,19.546,0,0,1,1.312,3.018,7.2,7.2,0,0,1,.82,3.212,19.89,19.89,0,0,1-1.312-3.018A7.2,7.2,0,0,1,276.06,343.96Z" transform="translate(-276.016 -343.96)" fill="#c9c9c9"/>
            </g>
            <g id="Group_3254" data-name="Group 3254" transform="translate(27.861 21.925)">
              <path id="Path_3813" data-name="Path 3813" d="M277.988,342.01a12.322,12.322,0,0,1,.7,4.089,8.847,8.847,0,0,1-.529,4.123c-.154-.031.118-1.85,0-4.1A24.3,24.3,0,0,1,277.988,342.01Z" transform="translate(-277.928 -342.01)" fill="#c9c9c9"/>
            </g>
            <g id="Group_3257" data-name="Group 3257" transform="translate(61.245 23.779)">
              <g id="Group_3255" data-name="Group 3255" transform="translate(0 0.014)">
                <path id="Path_3814" data-name="Path 3814" d="M310.807,343.848a14.083,14.083,0,0,1,1.174,4.23,26.091,26.091,0,0,1,.654,4.33,14.2,14.2,0,0,1-1.174-4.233A26.358,26.358,0,0,1,310.807,343.848Z" transform="translate(-310.78 -343.847)" fill="#c9c9c9"/>
              </g>
              <g id="Group_3256" data-name="Group 3256" transform="translate(1.939)">
                <path id="Path_3815" data-name="Path 3815" d="M313.2,343.834a16.546,16.546,0,0,1-.467,8.575,40.33,40.33,0,0,1,.271-4.285A40.315,40.315,0,0,1,313.2,343.834Z" transform="translate(-312.688 -343.834)" fill="#c9c9c9"/>
              </g>
            </g>
            <g id="Group_3258" data-name="Group 3258" transform="translate(0 113.178)">
              <path id="Path_3816" data-name="Path 3816" d="M274.164,432.071c0,.146-5.3.264-11.826.264s-11.827-.118-11.827-.264,5.294-.264,11.827-.264S274.164,431.926,274.164,432.071Z" transform="translate(-250.512 -431.807)" fill="#455a64"/>
            </g>
            <g id="Group_3259" data-name="Group 3259" transform="translate(37.4 112.734)">
              <path id="Path_3817" data-name="Path 3817" d="M314.218,431.635c0,.145-6.022.264-13.451.264s-13.453-.119-13.453-.264,6.022-.265,13.453-.265S314.218,431.489,314.218,431.635Z" transform="translate(-287.315 -431.37)" fill="#455a64"/>
            </g>
            <g id="Group_3260" data-name="Group 3260" transform="translate(53.54 17.021)">
              <path id="Path_3818" data-name="Path 3818" d="M344.756,337.423a1.463,1.463,0,0,1-.342.026l-1.005.026c-.917.009-2.212.025-3.863.045l-14.209.069-9.807.033a23.164,23.164,0,0,0-5.363.62,8.479,8.479,0,0,0-4.706,2.915,9.755,9.755,0,0,0-1.729,5.583c-.1,2.05.115,4.16.2,6.326.118,4.315.24,8.781.365,13.356.51,18.3.937,34.874,1.092,46.873.081,6,.107,10.854.1,14.209-.012,1.651-.02,2.947-.027,3.864-.008.418-.015.751-.02,1.005a1.667,1.667,0,0,1-.025.341,1.593,1.593,0,0,1-.028-.341c-.008-.254-.018-.586-.033-1.005-.016-.917-.041-2.211-.072-3.863-.064-3.387-.156-8.23-.271-14.2-.25-11.994-.737-28.562-1.247-46.865-.121-4.574-.24-9.04-.355-13.353-.074-2.144-.29-4.267-.181-6.37a10.217,10.217,0,0,1,1.848-5.855,8.942,8.942,0,0,1,4.972-3.069,23.539,23.539,0,0,1,5.473-.607l9.816.031,14.209.1,3.864.053,1,.027A1.65,1.65,0,0,1,344.756,337.423Z" transform="translate(-303.197 -337.184)" fill="#c9c9c9"/>
            </g>
            <path id="Path_3819" data-name="Path 3819" d="M282.355,350.925s-.939-12.044,3.581-18.969l-.717,19.331Z" transform="translate(-249.997 -320.248)" opacity="0.2"/>
            <g id="Group_3261" data-name="Group 3261" transform="translate(16.901 18.22)">
              <path id="Path_3820" data-name="Path 3820" d="M284.552,339.367a1.106,1.106,0,0,1-.273-.033l-.791-.144c-.694-.127-1.716-.332-3.044-.48a13.016,13.016,0,0,0-4.8.28,8.222,8.222,0,0,0-2.694,1.266,6.765,6.765,0,0,0-2.088,2.557c-1.035,2.135-1.142,4.808-1.2,7.607-.07,2.823-.145,5.835-.224,9-.168,6.344-.353,13.312-.547,20.628-.433,14.619-.824,27.851-1.109,37.477-.167,4.764-.3,8.633-.4,11.355-.057,1.309-.1,2.341-.135,3.087-.019.327-.036.59-.048.8a1.155,1.155,0,0,1-.035.272,1.046,1.046,0,0,1-.02-.274c0-.211,0-.476,0-.8.009-.748.02-1.78.036-3.09.055-2.724.133-6.6.229-11.359.245-9.629.582-22.861.954-37.483.208-7.315.407-14.282.587-20.627.1-3.168.188-6.18.272-9,.078-2.8.2-5.534,1.3-7.76a7.086,7.086,0,0,1,2.226-2.666,8.454,8.454,0,0,1,2.816-1.279,12.958,12.958,0,0,1,4.9-.2,30.49,30.49,0,0,1,3.042.579l.78.2A1.018,1.018,0,0,1,284.552,339.367Z" transform="translate(-267.143 -338.364)" fill="#c9c9c9"/>
            </g>
          </g>
          <path id="Path_3821" data-name="Path 3821" d="M282.954,263.925s-25.524,25.589-30.394,31.317c-4.153,4.885-1.444,14.106,2.034,14.5s59.738-.369,59.738-.369l-.746-11.508s-36.435.164-37.507-.508S297.155,274.3,297.155,274.3Z" transform="translate(-239.797 -200.23)" fill="#ffbe9d"/>
          <path id="Path_3822" data-name="Path 3822" d="M349.731,267.215s7.754,23.5,8.693,26.278,5.753,14.527-3.392,15.512-58.234,0-58.234,0l-3.652-11.878s47.447-.12,47.206-2.654-7.207-23.762-7.207-23.762Z" transform="translate(-239.105 -200.177)" fill="#ffbe9d"/>
        </g>
        <g id="Group_3264" data-name="Group 3264" transform="translate(55.124 58.954)">
          <path id="Path_3823" data-name="Path 3823" d="M246.9,260.01l17.633,48.844,81.167-.035-.564-2.387-30.455-1.119L299.689,259.26Z" transform="translate(-246.899 -259.26)" fill="#363636"/>
          <path id="Path_3824" data-name="Path 3824" d="M282.59,281.925a2.873,2.873,0,1,1-3.375-2.777A3.11,3.11,0,0,1,282.59,281.925Z" transform="translate(-246.412 -258.938)" fill="#fafafa"/>
        </g>
        <path id="Path_3825" data-name="Path 3825" d="M388.56,307.015H192.655V447.238h4.157V315.276H388.56V447.338h49.01V307.015Z" transform="translate(-192.655 -199.531)" fill="#363636"/>
      </g>
    </g>
    <g id="Character_1" data-name="Character 1" transform="translate(64.728 112.456)">
      <g id="Group_3307" data-name="Group 3307">
        <g id="Group_3279" data-name="Group 3279" transform="translate(71.405 322.998)">
          <g id="Group_3266" data-name="Group 3266" transform="translate(0)">
            <path id="Path_3826" data-name="Path 3826" d="M153.586,439.783v-10.5l-18.808-.125-.155,15.694,1.166.086c5.188.336,26.4.986,29.878-.089C169.543,443.651,153.586,439.783,153.586,439.783Z" transform="translate(-134.623 -429.161)" fill="#007cff"/>
          </g>
          <g id="Group_3268" data-name="Group 3268" transform="translate(0.063 14.41)">
            <g id="Group_3267" data-name="Group 3267">
              <path id="Path_3827" data-name="Path 3827" d="M166.109,443.66c0,.177-7.034.321-15.712.321s-15.713-.144-15.713-.321,7.033-.319,15.713-.319S166.109,443.484,166.109,443.66Z" transform="translate(-134.685 -443.341)" fill="#263238"/>
            </g>
          </g>
          <g id="Group_3270" data-name="Group 3270" transform="translate(19.231 10.837)">
            <g id="Group_3269" data-name="Group 3269">
              <path id="Path_3828" data-name="Path 3828" d="M153.61,441.752c-.154-.081-.022-.636.382-1.182s.894-.84,1.017-.716-.132.588-.5,1.094S153.768,441.836,153.61,441.752Z" transform="translate(-153.547 -439.825)" fill="#263238"/>
            </g>
          </g>
          <g id="Group_3272" data-name="Group 3272" transform="translate(20.414 11.159)">
            <g id="Group_3271" data-name="Group 3271">
              <path id="Path_3829" data-name="Path 3829" d="M154.79,442.438c-.163-.061-.078-.683.292-1.336s.858-1.05.994-.942-.1.645-.437,1.256S154.958,442.5,154.79,442.438Z" transform="translate(-154.711 -440.142)" fill="#263238"/>
            </g>
          </g>
          <g id="Group_3274" data-name="Group 3274" transform="translate(0.304 10.975)">
            <g id="Group_3273" data-name="Group 3273">
              <path id="Path_3830" data-name="Path 3830" d="M140.348,443.645c-.073.052-.354-.225-.76-.687a12.383,12.383,0,0,0-1.65-1.651,4.305,4.305,0,0,0-2.034-.889c-.571-.076-.947.012-.979-.08-.034-.068.316-.33.994-.371a3.739,3.739,0,0,1,2.409.833,6.867,6.867,0,0,1,1.625,1.892C140.273,443.233,140.419,443.6,140.348,443.645Z" transform="translate(-134.922 -439.961)" fill="#263238"/>
            </g>
          </g>
          <g id="Group_3276" data-name="Group 3276" transform="translate(17.537 10.713)">
            <g id="Group_3275" data-name="Group 3275">
              <path id="Path_3831" data-name="Path 3831" d="M153.694,439.78c.091.149-.231.513-.767.71s-1.019.128-1.045-.045.354-.381.823-.555S153.6,439.629,153.694,439.78Z" transform="translate(-151.881 -439.703)" fill="#263238"/>
            </g>
          </g>
          <g id="Group_3278" data-name="Group 3278" transform="translate(16.808 9.472)">
            <g id="Group_3277" data-name="Group 3277">
              <path id="Path_3832" data-name="Path 3832" d="M153.41,438.786c.018.176-.484.327-1.119.335s-1.139-.129-1.128-.3.513-.326,1.12-.334S153.394,438.61,153.41,438.786Z" transform="translate(-151.163 -438.482)" fill="#263238"/>
            </g>
          </g>
        </g>
        <path id="Path_3833" data-name="Path 3833" d="M206.983,131.854l.174-3.176a27.116,27.116,0,0,0,.4-5.333,7.834,7.834,0,0,0-.468-2.609,11.979,11.979,0,0,0-1.428-2.98,1.025,1.025,0,0,1,.9-1.719c.9.23,2.729,2.355,3.557,5.525s2.966-1.523,3.775-3.219,3.559-6.828,4.277-6.993c1.055-.241,1.507.843.66,2.519-.859,1.7-3.036,6.879-2.119,7.264a4.865,4.865,0,0,1,2-.086.53.53,0,0,1,.416.446,6.151,6.151,0,0,0,.3,1.458s1.262-.4,1.578.132a5.558,5.558,0,0,1,.411,1.767s.959-.427,1.464-.1c1.092.71-.083,2.2-.083,2.2a107.007,107.007,0,0,1-8.468,10.659l-7.389-5.946" transform="translate(-62.07 -111.317)" fill="#ffbe9d"/>
        <g id="Group_3280" data-name="Group 3280" transform="translate(46.832 8.846)">
          <path id="Path_3834" data-name="Path 3834" d="M118.052,131.4l-.124,40.534,17.39.829.5-9.859s6.177,1.227,7.77-4.51c1.018-3.664.764-31.982.764-31.982Z" transform="translate(-110.32 -119.918)" fill="#ffbe9d"/>
          <path id="Path_3835" data-name="Path 3835" d="M143.477,120.23c-5.289,1.713-6.567,2.284-8.938,2.475-2.275.182-18.48.2-19.95,9.279a6.641,6.641,0,0,1-.457-1.335,22.848,22.848,0,0,1-.2-2.683,3.37,3.37,0,0,0-.317,2.8,4.775,4.775,0,0,0,.174.586c-.1-.109-.207-.218-.327-.322a5.119,5.119,0,0,0-2.055-1.093c-.583-.142-.957-.112-.965-.047a13.947,13.947,0,0,1,2.675,1.54,6.868,6.868,0,0,1,1.367,1.622c0,.042-.008.08-.008.122,0,0-3.466-1.523-2.555,4.76s5.016,11.614,5.518,21.9c0,0,14.364,1.713,16.919-3.809l2.146-6.334s-3.456-.562-3.054-3.341c.556-3.846,3.495-3.945,5.684-2.231l2.519-6.753s6.385-4.189,6.749-6.854S148.767,118.517,143.477,120.23Z" transform="translate(-110.442 -120.022)" fill="#263238"/>
        </g>
        <g id="Group_3283" data-name="Group 3283" transform="translate(3.912 325.775)">
          <path id="Path_3836" data-name="Path 3836" d="M70.755,431.893l-2.548,11.338L85.764,445.4l.629-11.234Z" transform="translate(-68.206 -431.893)" fill="#007cff"/>
          <g id="Group_3281" data-name="Group 3281" transform="translate(8.757 0.555)">
            <path id="Path_3837" data-name="Path 3837" d="M78.541,432.44a51.932,51.932,0,0,1-1.678,10.327,51.739,51.739,0,0,1,1.678-10.327Z" transform="translate(-76.824 -432.44)" fill="#263238"/>
          </g>
          <g id="Group_3282" data-name="Group 3282" transform="translate(0.445 9.119)">
            <path id="Path_3838" data-name="Path 3838" d="M85.825,444.021a13.76,13.76,0,0,1-2.543-.32c-1.747-.283-3.811-.617-6.09-.988-2.379-.4-4.529-.8-6.074-1.141a11.369,11.369,0,0,1-2.473-.686,13.505,13.505,0,0,1,2.543.318c1.748.285,3.811.619,6.092.988,2.378.4,4.528.8,6.073,1.142A11.164,11.164,0,0,1,85.825,444.021Z" transform="translate(-68.645 -440.867)" fill="#263238"/>
          </g>
        </g>
        <g id="Group_3290" data-name="Group 3290" transform="translate(0 145.195)">
          <path id="Path_3839" data-name="Path 3839" d="M96.844,256.52,64.357,439.111l27.827,1.578S121.738,283.3,126.077,282.9c1.817-.165,2.547,156.54,4.007,156.207s30.062.508,30.062.508-3.87-185.42-3.8-185.424S96.844,256.52,96.844,256.52Z" transform="translate(-64.357 -254.195)" fill="#151617"/>
          <g id="Group_3289" data-name="Group 3289" transform="translate(1.782 24.861)">
            <g id="Group_3284" data-name="Group 3284" transform="translate(50.162)">
              <path id="Path_3840" data-name="Path 3840" d="M137.122,278.674c.031.142-4.792,1.289-10.77,2.558s-10.85,2.185-10.88,2.042,4.79-1.288,10.77-2.558S137.092,278.531,137.122,278.674Z" transform="translate(-115.473 -278.659)" fill="#c9c9c9"/>
            </g>
            <g id="Group_3285" data-name="Group 3285" transform="translate(0 149.967)">
              <path id="Path_3841" data-name="Path 3841" d="M94.186,427.177c0,.146-6.293.069-14.045-.17s-14.035-.554-14.03-.7,6.292-.07,14.046.171S94.191,427.032,94.186,427.177Z" transform="translate(-66.111 -426.234)" fill="#c9c9c9"/>
            </g>
            <g id="Group_3286" data-name="Group 3286" transform="translate(63.482 149.95)">
              <path id="Path_3842" data-name="Path 3842" d="M158.894,427.193c0,.145-6.794.062-15.164-.188s-15.155-.57-15.15-.716,6.792-.062,15.165.188S158.9,427.046,158.894,427.193Z" transform="translate(-128.58 -426.217)" fill="#c9c9c9"/>
            </g>
            <g id="Group_3287" data-name="Group 3287" transform="translate(13.322 5.069)">
              <path id="Path_3843" data-name="Path 3843" d="M110.487,283.648c.143.031-6.741,32.6-15.372,72.745s-15.749,72.671-15.892,72.64,6.74-32.6,15.373-72.751S110.345,283.618,110.487,283.648Z" transform="translate(-79.221 -283.648)" fill="#c9c9c9"/>
            </g>
            <g id="Group_3288" data-name="Group 3288" transform="translate(77.061 4.287)">
              <path id="Path_3844" data-name="Path 3844" d="M143.639,429.065a1.991,1.991,0,0,1-.039-.377c-.015-.275-.036-.641-.061-1.107-.044-1-.1-2.432-.184-4.256-.151-3.7-.332-9.046-.525-15.659-.386-13.225-.764-31.5-.864-51.686s.108-38.472.367-51.7c.129-6.613.259-11.965.375-15.663l.142-4.257c.021-.464.038-.83.051-1.107a2.141,2.141,0,0,1,.035-.376,1.915,1.915,0,0,1,.019.377c0,.277,0,.643,0,1.109-.01,1-.024,2.433-.044,4.259-.049,3.729-.119,9.074-.206,15.664-.163,13.228-.306,31.5-.211,51.693s.418,38.452.708,51.678c.15,6.589.272,11.932.358,15.662.036,1.825.064,3.254.084,4.26,0,.465.006.831.008,1.108A2,2,0,0,1,143.639,429.065Z" transform="translate(-141.943 -282.878)" fill="#c9c9c9"/>
            </g>
          </g>
        </g>
        <g id="Group_3306" data-name="Group 3306" transform="translate(10.63 19.622)">
          <path id="Path_3845" data-name="Path 3845" d="M206.229,130.626s-21.544,32.5-23.369,34.323-35.568,5.373-35.569,5.373c-10.358-2.339-43.851-1.567-50.179,3.091h0c-5.472,3.028-12.124,10.116-15.549,26.962-5.842,28.736-11.685,39.325,0,43.342a76.846,76.846,0,0,0,14.386,3.389l-.323,13.008,60.562-3.763-3.1-32.3c-.364-9.068-.534-18.522-.757-26.893,3.787-1.435,39.009-14.767,41.428-15.112,2.556-.365,25.615-43.019,25.615-43.019C220.1,133.911,206.229,130.626,206.229,130.626Z" transform="translate(-74.817 -130.626)" fill="#007cff"/>
          <g id="Group_3291" data-name="Group 3291" transform="translate(20.774 58.814)">
            <path id="Path_3846" data-name="Path 3846" d="M97.272,188.5c.146,0-.179,15.831-.725,35.343s-1.107,35.336-1.253,35.332.178-15.827.725-35.346S97.126,188.5,97.272,188.5Z" transform="translate(-95.259 -188.502)" fill="#263238"/>
          </g>
          <g id="Group_3292" data-name="Group 3292" transform="translate(108.03 34.32)">
            <path id="Path_3847" data-name="Path 3847" d="M184.169,171.717a10.514,10.514,0,0,1-1.764-3.565,26.627,26.627,0,0,1-1.268-3.751,10.556,10.556,0,0,1,1.764,3.566A26.591,26.591,0,0,1,184.169,171.717Z" transform="translate(-181.123 -164.398)" fill="#263238"/>
          </g>
          <g id="Group_3293" data-name="Group 3293" transform="translate(108.035 34.317)">
            <path id="Path_3848" data-name="Path 3848" d="M186.584,168.952a18.176,18.176,0,0,1-2.888-2.067,9.152,9.152,0,0,1-2.56-2.484,18.084,18.084,0,0,1,2.887,2.068A9.188,9.188,0,0,1,186.584,168.952Z" transform="translate(-181.128 -164.395)" fill="#263238"/>
          </g>
          <g id="Group_3294" data-name="Group 3294" transform="translate(129.121 3.301)">
            <path id="Path_3849" data-name="Path 3849" d="M216.146,141.523A12.923,12.923,0,0,1,214.1,140.3c-1.236-.789-2.96-1.845-4.927-2.9s-3.8-1.9-5.145-2.493a13.072,13.072,0,0,1-2.154-1.018,9.069,9.069,0,0,1,2.295.671,42.85,42.85,0,0,1,10.142,5.431A9.18,9.18,0,0,1,216.146,141.523Z" transform="translate(-201.877 -133.874)" fill="#263238"/>
          </g>
          <g id="Group_3295" data-name="Group 3295" transform="translate(14.741 92.698)">
            <path id="Path_3850" data-name="Path 3850" d="M96.643,223.461a11.929,11.929,0,0,1-3.746-.384,10.015,10.015,0,0,1-3.573-1.2,20.849,20.849,0,0,1,3.681.684A15.554,15.554,0,0,1,96.643,223.461Z" transform="translate(-89.323 -221.845)" fill="#263238"/>
          </g>
          <g id="Group_3296" data-name="Group 3296" transform="translate(65.707 39.192)">
            <path id="Path_3851" data-name="Path 3851" d="M151.775,169.236a30.166,30.166,0,0,0-3.248.763,12.588,12.588,0,0,0-8.66,12.141,29.928,29.928,0,0,0,.335,3.319,2.684,2.684,0,0,1-.327-.852,10.86,10.86,0,0,1-.382-2.459,12.361,12.361,0,0,1,8.92-12.506,10.811,10.811,0,0,1,2.45-.438A2.684,2.684,0,0,1,151.775,169.236Z" transform="translate(-139.476 -169.192)" fill="#263238"/>
          </g>
          <g id="Group_3297" data-name="Group 3297" transform="translate(20.809 125.705)">
            <path id="Path_3852" data-name="Path 3852" d="M155.856,254.343c.009.145-13.542,1.108-30.264,2.146s-30.289,1.763-30.3,1.618S108.833,257,125.56,255.96,155.847,254.2,155.856,254.343Z" transform="translate(-95.294 -254.325)" fill="#263238"/>
          </g>
          <g id="Group_3298" data-name="Group 3298" transform="translate(6.685 38.598)">
            <path id="Path_3853" data-name="Path 3853" d="M131.957,168.608a4.146,4.146,0,0,1,.179.753c.045.25.122.557.167.926s.074.807.118,1.28a19.843,19.843,0,0,1-1.311,8.044,19.014,19.014,0,0,1-7.544,9.345,12.182,12.182,0,0,1-1.544.828,14.215,14.215,0,0,1-1.651.685c-1.128.409-2.3.752-3.453,1.164a15.643,15.643,0,0,0-3.355,1.568,12.047,12.047,0,0,0-2.75,2.6,70.007,70.007,0,0,0-4,6.491,13.715,13.715,0,0,1-4.974,5.179,11.491,11.491,0,0,1-6.392,1.183,15.3,15.3,0,0,1-5.45-1.557,24.586,24.586,0,0,1-6.566-4.842c-.684-.68-1.19-1.23-1.532-1.6a4.277,4.277,0,0,1-.5-.593,4.066,4.066,0,0,1,.574.519l1.6,1.529a25.652,25.652,0,0,0,6.586,4.653,15.053,15.053,0,0,0,5.324,1.456,11.079,11.079,0,0,0,6.124-1.175,13.307,13.307,0,0,0,4.765-5.02,68.266,68.266,0,0,1,4.028-6.546,12.517,12.517,0,0,1,2.88-2.71,15.991,15.991,0,0,1,3.468-1.617l3.456-1.149a13.992,13.992,0,0,0,1.613-.661,11.947,11.947,0,0,0,1.5-.794,18.81,18.81,0,0,0,7.449-9.065,20.441,20.441,0,0,0,1.454-7.9q-.038-.7-.069-1.27c-.027-.367-.088-.674-.115-.925A4.328,4.328,0,0,1,131.957,168.608Z" transform="translate(-81.395 -168.608)" fill="#263238"/>
          </g>
          <g id="Group_3299" data-name="Group 3299" transform="translate(49.999 72.932)">
            <path id="Path_3854" data-name="Path 3854" d="M154.2,242.781c-.015.02-.232-.156-.676-.433a6.2,6.2,0,0,0-2.1-.859,30.12,30.12,0,0,0-3.618-.322c-1.412-.115-3.028-.125-4.824-.191a23.762,23.762,0,0,1-5.835-.817,19.613,19.613,0,0,1-6.1-2.935,17.051,17.051,0,0,1-4.987-5.574,16.263,16.263,0,0,1-2.045-7.759,14.063,14.063,0,0,1,7.717-12.735,12.781,12.781,0,0,1,3.335-1.113,20.411,20.411,0,0,1,3.286-.27,48.386,48.386,0,0,0,5.829-.172,8.44,8.44,0,0,0,6.8-4.235,6.428,6.428,0,0,0,.63-2.176c.062-.52.054-.8.08-.8.01,0,.018.068.025.2a4.447,4.447,0,0,1,0,.6,6.072,6.072,0,0,1-.551,2.256,7.214,7.214,0,0,1-2.38,2.8,9.938,9.938,0,0,1-4.55,1.72,47.062,47.062,0,0,1-5.873.24,19.99,19.99,0,0,0-3.211.29,12.343,12.343,0,0,0-3.2,1.09,13.621,13.621,0,0,0-7.407,12.3,15.852,15.852,0,0,0,1.97,7.512,16.648,16.648,0,0,0,4.819,5.429,19.321,19.321,0,0,0,5.936,2.908A23.776,23.776,0,0,0,143,240.6c1.783.089,3.408.127,4.832.27a27.514,27.514,0,0,1,3.638.417,5.894,5.894,0,0,1,2.109.969,5.02,5.02,0,0,1,.473.376C154.157,242.725,154.206,242.774,154.2,242.781Z" transform="translate(-124.018 -202.394)" fill="#263238"/>
          </g>
          <g id="Group_3300" data-name="Group 3300" transform="translate(22.357 89.857)">
            <path id="Path_3855" data-name="Path 3855" d="M120.982,257.395a10.47,10.47,0,0,0-.118-2.177,7.625,7.625,0,0,0-3.129-4.816,7.084,7.084,0,0,0-1.732-.844,10.8,10.8,0,0,0-2.077-.384,22.235,22.235,0,0,1-4.761-.644,6.075,6.075,0,0,1-2.28-1.379,7.393,7.393,0,0,1-1.548-2.3,10.634,10.634,0,0,1-.662-5.682c.566-3.909,2.282-7.275,2.582-10.587a10.428,10.428,0,0,0-.414-4.6,6.628,6.628,0,0,0-2.359-3.188,7.729,7.729,0,0,0-5.571-1.426,11.106,11.106,0,0,0-2.1.588,5.046,5.046,0,0,1,2.066-.792,7.793,7.793,0,0,1,5.822,1.325,6.982,6.982,0,0,1,2.551,3.342,10.769,10.769,0,0,1,.488,4.8c-.294,3.425-2,6.826-2.544,10.606a10.182,10.182,0,0,0,.614,5.406,6.891,6.891,0,0,0,1.425,2.142,5.574,5.574,0,0,0,2.084,1.277,22.52,22.52,0,0,0,4.65.671,11.083,11.083,0,0,1,2.154.431,7.378,7.378,0,0,1,1.821.928,7.688,7.688,0,0,1,3.119,5.087,6.225,6.225,0,0,1,.033,1.648A2.365,2.365,0,0,1,120.982,257.395Z" transform="translate(-96.817 -219.05)" fill="#263238"/>
          </g>
          <g id="Group_3301" data-name="Group 3301" transform="translate(42.793 71.483)">
            <path id="Path_3856" data-name="Path 3856" d="M118.629,201.453c-.014-.021.21-.215.715-.367a3.4,3.4,0,0,1,2.2.146,3.445,3.445,0,0,1,1.279.894,3.088,3.088,0,0,1,.739,1.652,3.558,3.558,0,0,1-1.758,3.553,3.517,3.517,0,0,1-3.914-.611,2.979,2.979,0,0,1-.9-1.575,3.292,3.292,0,0,1,.072-1.562,3.238,3.238,0,0,1,1.266-1.8c.442-.291.738-.33.744-.306.019.044-.246.15-.619.47a3.266,3.266,0,0,0-1.028,1.731,2.69,2.69,0,0,0,.791,2.685,3.067,3.067,0,0,0,3.339.5,3.106,3.106,0,0,0,1.519-3.025,2.817,2.817,0,0,0-1.683-2.261,3.459,3.459,0,0,0-2-.289C118.9,201.367,118.649,201.494,118.629,201.453Z" transform="translate(-116.928 -200.968)" fill="#263238"/>
          </g>
          <g id="Group_3302" data-name="Group 3302" transform="translate(2.946 86.925)">
            <path id="Path_3857" data-name="Path 3857" d="M88.8,244.534c-.113-.023.365-1.786.477-4.693a20.615,20.615,0,0,0-.026-2.374,27.006,27.006,0,0,0-.269-2.709,28.185,28.185,0,0,0-4.5-11.527,27.184,27.184,0,0,0-1.638-2.175,20.734,20.734,0,0,0-1.589-1.763c-2.053-2.061-3.6-3.032-3.531-3.126a5.756,5.756,0,0,1,1.091.662,10.3,10.3,0,0,1,1.2.891,17.149,17.149,0,0,1,1.5,1.306,19.6,19.6,0,0,1,1.663,1.747,25.9,25.9,0,0,1,1.705,2.183,27.117,27.117,0,0,1,4.583,11.732,25.558,25.558,0,0,1,.226,2.76,19.445,19.445,0,0,1-.039,2.411,17.358,17.358,0,0,1-.215,1.976,10.473,10.473,0,0,1-.281,1.472A5.856,5.856,0,0,1,88.8,244.534Z" transform="translate(-77.716 -216.164)" fill="#263238"/>
          </g>
          <g id="Group_3303" data-name="Group 3303" transform="translate(87.779 46.217)">
            <path id="Path_3858" data-name="Path 3858" d="M192.888,180.858a11.617,11.617,0,0,1-1.513-.671c-.964-.447-2.366-1.084-4.145-1.736a31.006,31.006,0,0,0-6.424-1.623,21.232,21.232,0,0,0-8.033.4,16.062,16.062,0,0,0-7.056,3.72,13.562,13.562,0,0,0-3.627,5.416,10.951,10.951,0,0,0-.613,4.374c.077,1.053.244,1.623.188,1.636a1.277,1.277,0,0,1-.144-.406,7.627,7.627,0,0,1-.249-1.21,10.446,10.446,0,0,1,.463-4.513,13.62,13.62,0,0,1,3.647-5.652,16.255,16.255,0,0,1,7.261-3.878,21.176,21.176,0,0,1,8.228-.367,29.588,29.588,0,0,1,6.491,1.756,38.26,38.26,0,0,1,4.1,1.9c.47.255.83.458,1.069.608S192.9,180.842,192.888,180.858Z" transform="translate(-161.196 -176.105)" fill="#263238"/>
          </g>
          <g id="Group_3304" data-name="Group 3304" transform="translate(113.308 5.444)">
            <path id="Path_3859" data-name="Path 3859" d="M200.8,135.984c.013-.012.108.069.276.238a7.948,7.948,0,0,1,.7.774,11.857,11.857,0,0,1,1.881,3.352,13.6,13.6,0,0,1,.8,5.648,13.842,13.842,0,0,1-2.209,6.623,13.457,13.457,0,0,1-5.271,4.577,14.082,14.082,0,0,1-5.513,1.463,12.4,12.4,0,0,1-3.826-.353,7.83,7.83,0,0,1-.995-.317c-.224-.083-.337-.136-.331-.153a17.508,17.508,0,0,0,5.125.45,14.235,14.235,0,0,0,5.322-1.526,13.263,13.263,0,0,0,5.048-4.434,13.744,13.744,0,0,0,1.494-11.854A16.664,16.664,0,0,0,200.8,135.984Z" transform="translate(-186.317 -135.983)" fill="#263238"/>
          </g>
          <g id="Group_3305" data-name="Group 3305" transform="translate(43.784 38.257)">
            <path id="Path_3860" data-name="Path 3860" d="M135.56,168.477a73.734,73.734,0,0,1-8.826.333,73.984,73.984,0,0,1-8.831-.2,73.877,73.877,0,0,1,8.827-.332A74.147,74.147,0,0,1,135.56,168.477Z" transform="translate(-117.903 -168.272)" fill="#263238"/>
          </g>
        </g>
      </g>
    </g>
  </g>
</svg>
